<?xml version="1.0" encoding="utf-8"?>
<!-- Svg Vector Icons : http://www.sfont.cn -->
<!DOCTYPE svg PUBLIC "-//W3C//DTD SVG 1.1//EN" "http://www.w3.org/Graphics/SVG/1.1/DTD/svg11.dtd">
<svg version="1.1" xmlns="http://www.w3.org/2000/svg" xmlns:xlink="http://www.w3.org/1999/xlink" x="0px" y="0px" viewBox="0 0 1000 1000" enable-background="new 0 0 1000 1000" xml:space="preserve">
<metadata> Svg Vector Icons : http://www.sfont.cn </metadata>
<g><g><g><polygon points="429.2,609.5 429.2,532.5 390.8,571 "/><path d="M488.6,426.8c8,0,14.4,6.5,14.4,14.4s-6.5,14.4-14.4,14.4c-8,0-14.4-6.4-14.4-14.4S480.6,426.8,488.6,426.8z"/><path d="M500,10C229.4,10,10,229.4,10,500c0,270.6,219.4,490,490,490s490-219.4,490-490C990,229.4,770.6,10,500,10z M453.7,800.3c0,6.8-5.5,12.3-12.3,12.3c-6.8,0-12.3-5.5-12.3-12.3V641c-2.3-0.5-4.5-1.3-6.2-3.1l-58.2-58.2c-4.8-4.8-4.8-12.5,0-17.3l68-68c1.1-1.1,2.5-2,4-2.7c3-1.2,6.4-1.2,9.4,0c3,1.3,5.4,3.6,6.6,6.6c0.6,1.5,0.9,3.1,0.9,4.7L453.7,800.3L453.7,800.3z M497.3,589.9c0,6.8-5.5,12.3-12.3,12.3c-6.8,0-12.3-5.5-12.3-12.3v-87c0-6.8,5.5-12.3,12.3-12.3c6.8,0,12.3,5.5,12.3,12.3V589.9z M488.6,480.1c-21.4,0-38.9-17.5-38.9-38.9s17.4-38.9,38.9-38.9c21.4,0,38.9,17.5,38.9,38.9S510,480.1,488.6,480.1z M631.1,424.3c4.3,5.2,3.6,12.9-1.6,17.3c-2.3,1.9-5.1,2.8-7.8,2.8c-3.5,0-7-1.5-9.4-4.4l-5.2-6.2l-71.2,74.2v292.5c0,6.8-5.5,12.3-12.3,12.3c-6.8,0-12.3-5.5-12.3-12.3V503c0-0.6,0.2-1.1,0.3-1.6c0.1-1,0.2-2,0.6-2.9c0.4-1,1-1.8,1.7-2.6c0.3-0.4,0.5-0.9,0.8-1.3l0.2-0.2c0,0,0,0,0,0l76.4-79.5l-42.9-51.5c-19.1,12.9-41.9,20.3-66,20.3c-8.5,0-17-0.9-25.4-2.7c-64.1-13.9-104.8-77.4-90.9-141.4c11.8-54.3,60.6-93.6,116-93.6c8.5,0,17,0.9,25.4,2.7c64,13.9,104.8,77.3,90.9,141.4c-4.9,22.3-16.1,42.1-31.3,57.6l41.2,49.4l4.4-4.6c4.7-4.9,12.5-5,17.3-0.3c4.9,4.7,5,12.4,0.3,17.3l-6.4,6.6L631.1,424.3z"/></g></g><g></g><g></g><g></g><g></g><g></g><g></g><g></g><g></g><g></g><g></g><g></g><g></g><g></g><g></g><g></g></g>
</svg>